<!DOCTYPE svg PUBLIC "-//W3C//DTD SVG 1.1//EN" "http://www.w3.org/Graphics/SVG/1.1/DTD/svg11.dtd">
<!-- Uploaded to: SVG Repo, www.svgrepo.com, Transformed by: SVG Repo Mixer Tools -->
<svg fill="#3f0088" width="192px" height="192px" viewBox="-3.2 -3.2 38.40 38.40" xmlns="http://www.w3.org/2000/svg" stroke="#3f0088" stroke-width="0.00032" transform="matrix(1, 0, 0, 1, 0, 0)rotate(0)">
<g id="SVGRepo_bgCarrier" stroke-width="0"/>
<g id="SVGRepo_tracerCarrier" stroke-linecap="round" stroke-linejoin="round"/>
<g id="SVGRepo_iconCarrier">
<path d="M27 24.57l-5.647-5.648a8.895 8.895 0 0 0 1.522-4.984C22.875 9.01 18.867 5 13.938 5 9.01 5 5 9.01 5 13.938c0 4.929 4.01 8.938 8.938 8.938a8.887 8.887 0 0 0 4.984-1.522L24.568 27 27 24.57zm-13.062-4.445a6.194 6.194 0 0 1-6.188-6.188 6.195 6.195 0 0 1 6.188-6.188 6.195 6.195 0 0 1 6.188 6.188 6.195 6.195 0 0 1-6.188 6.188z"/>
</g>
</svg>